<?xml version="1.0" encoding="UTF-8" standalone="no"?>
<svg
   height="6726px"
   version="1.1"
   width="5042px"
   id="svg53"
   sodipodi:docname="Shi_1996_Chloride_225_p1_1a_dashed.svg"
   inkscape:version="1.1.1 (eb90963e84, 2021-10-02)"
   xmlns:inkscape="http://www.inkscape.org/namespaces/inkscape"
   xmlns:sodipodi="http://sodipodi.sourceforge.net/DTD/sodipodi-0.dtd"
   xmlns:xlink="http://www.w3.org/1999/xlink"
   xmlns="http://www.w3.org/2000/svg"
   xmlns:svg="http://www.w3.org/2000/svg">
  <sodipodi:namedview
     id="namedview55"
     pagecolor="#ffffff"
     bordercolor="#666666"
     borderopacity="1.0"
     inkscape:pageshadow="2"
     inkscape:pageopacity="0.0"
     inkscape:pagecheckerboard="0"
     showgrid="false"
     inkscape:zoom="0.27207737"
     inkscape:cx="2287.9522"
     inkscape:cy="4891.9909"
     inkscape:window-width="1920"
     inkscape:window-height="933"
     inkscape:window-x="1920"
     inkscape:window-y="0"
     inkscape:window-maximized="1"
     inkscape:current-layer="svg53" />
  <defs
     id="defs49" />
  <image
     height="6726px"
     sodipodi:insensitive="true"
     width="5042px"
     x="0"
     xlink:href="Shi_1996_Chloride_225_p1.png"
     y="0"
     id="image51" />
  <g
     id="g11011"
     transform="translate(-1.3324531,-0.65393309)">
    <path
       style="fill:none;stroke:#000000;stroke-width:1px;stroke-linecap:butt;stroke-linejoin:miter;stroke-opacity:1"
       d="m 1973.1318,4431.7608 -449.6771,67.5464"
       id="path190" />
    <text
       xml:space="preserve"
       style="font-size:85.3333px;line-height:1.25;font-family:sans-serif"
       x="954.39178"
       y="4535.6963"
       id="text2598"><tspan
         sodipodi:role="line"
         id="tspan2596"
         x="954.39178"
         y="4535.6963">y2: 4 uA/cm2</tspan></text>
  </g>
  <g
     id="g11016"
     transform="translate(2.5887264,1.9521628)">
    <path
       style="fill:none;stroke:#000000;stroke-width:1px;stroke-linecap:butt;stroke-linejoin:miter;stroke-opacity:1"
       d="m 1970.543,5097.0699 -426.2262,31.1575"
       id="path192" />
    <text
       xml:space="preserve"
       style="font-size:85.3333px;line-height:1.25;font-family:sans-serif"
       x="925.76349"
       y="5167.2705"
       id="text4252"><tspan
         sodipodi:role="line"
         id="tspan4250"
         x="925.76349"
         y="5167.2705">y1: -2 uA/cm2</tspan></text>
  </g>
  <g
     id="g11021"
     transform="translate(-4.5302613,4.5486222)">
    <path
       style="fill:none;stroke:#000000;stroke-width:1px;stroke-linecap:butt;stroke-linejoin:miter;stroke-opacity:1"
       d="m 2045.9207,5203.6209 -501.6039,111.744"
       id="path194" />
    <text
       xml:space="preserve"
       style="font-size:85.3333px;line-height:1.25;font-family:sans-serif"
       x="699.78284"
       y="5375.1411"
       id="text8150"><tspan
         sodipodi:role="line"
         id="tspan8148"
         x="699.78284"
         y="5375.1411">x1: -600 mV vs SCE</tspan></text>
  </g>
  <g
     id="g11026"
     transform="translate(0.64719152,3.8946891)">
    <path
       style="fill:none;stroke:#000000;stroke-width:1px;stroke-linecap:butt;stroke-linejoin:miter;stroke-opacity:1"
       d="m 2544.7835,5203.6209 527.6434,51.9676"
       id="path196" />
    <text
       xml:space="preserve"
       style="font-size:85.3333px;line-height:1.25;font-family:sans-serif"
       x="3075.168"
       y="5281.5527"
       id="text10530"><tspan
         sodipodi:role="line"
         id="tspan10528"
         x="3075.168"
         y="5281.5527">x2: 800 mV vs SCE</tspan></text>
  </g>
  <text
     xml:space="preserve"
     style="font-size:85.3333px;line-height:1.25;font-family:sans-serif"
     x="2874.8462"
     y="5120.7231"
     id="text14508"><tspan
       sodipodi:role="line"
       id="tspan14506"
       x="2874.8462"
       y="5120.7231">scan rate: 10 mV/s</tspan></text>
  <g
     id="g3521">
    <text
       xml:space="preserve"
       style="font-size:85.3333px;line-height:1.25;font-family:sans-serif"
       x="1783.2183"
       y="4227.5967"
       id="text12656"><tspan
         sodipodi:role="line"
         id="tspan12654"
         x="1783.2183"
         y="4227.5967">curve: Au(111)_0.1M_KClO4</tspan></text>
    <path
       style="fill:none;stroke:#000000;stroke-width:1px;stroke-linecap:butt;stroke-linejoin:miter;stroke-opacity:1"
       d="m 1971.9374,4917.3636 c 0,0 0.3911,-26.8815 7.8065,-36.7535 5.8096,-7.7342 14.0118,-9.3508 23.4466,-11.485 11.8062,-2.6707 24.2299,-0.3125 36.2872,-1.3804 13.2482,-1.1734 26.3252,-3.8235 39.5173,-5.5147 11.7745,-1.5095 23.5473,-3.0872 35.3719,-4.1344 17.7207,-1.5693 35.4981,-2.4848 53.2731,-3.2163 13.9267,-0.5731 27.9058,0.1222 41.8055,-0.918 18.0154,-1.3482 36.0925,-3.1051 53.7577,-6.8883 13.9275,-2.9827 27.7017,-7.024 40.8903,-12.403 11.6715,-4.7602 22.9474,-10.6319 33.5413,-17.4622 10.631,-6.8543 20.8559,-14.535 29.8534,-23.4257 7.1295,-7.0449 12.2351,-15.8964 18.8434,-23.4324 3.2117,-3.6626 5.4085,-9.2373 10.0948,-10.5671 3.5061,-0.9949 7.377,1.0205 10.5792,2.7608 4.1864,2.2752 8.1646,5.5189 10.5523,9.6422 2.8313,4.8895 1.3461,11.4023 3.688,16.5442 1.4977,3.2883 3.4866,6.6337 6.4337,8.7243 3.3999,2.4118 7.8112,4.1574 11.9521,3.6787 4.2224,-0.4881 7.7319,-3.727 11.01,-6.4327 3.7698,-3.1115 6.2728,-7.509 9.6639,-11.0294 2.6289,-2.7291 4.4757,-7.7248 8.2642,-7.8063 3.0386,-0.065 6.5735,2.9477 6.8913,5.9703 1.3342,12.6893 0.5837,37.0593 0.4576,55.5892 -0.2376,34.9228 0.3588,73.7869 -2.2881,104.7457 -0.5087,5.9502 -2.5411,12.446 -6.8913,16.5374 -3.0714,2.8887 -7.7732,3.5804 -11.9521,4.1412 -9.1271,1.2248 -18.3567,-1.9185 -27.5653,-1.8428 -9.22,0.076 -18.703,-0.2461 -27.5652,2.2983 -5.4629,1.5685 -9.6157,6.5427 -15.1555,7.8131 -5.9755,1.3703 -12.2603,-0.2166 -18.3859,-0.4624 -2.7567,-0.1106 -5.5516,-0.959 -8.2642,-0.4556 -3.3076,0.6139 -5.8815,4.6464 -9.2064,4.1344 -5.4632,-0.8412 -8.3254,-7.2756 -12.3828,-11.0295 -8.1114,-7.5047 -14.9707,-16.4657 -23.9043,-22.97 -9.4131,-6.8535 -20.0696,-11.9429 -30.7685,-16.5374 -11.7011,-5.0249 -23.8065,-9.4175 -36.2871,-11.9474 -10.9945,-2.2286 -22.3302,-2.36 -33.5414,-2.754 -13.0128,-0.4573 -26.0402,0.6346 -39.0598,0.4556 -15.6326,-0.2149 -31.24,-1.344 -46.8663,-1.836 -12.8557,-0.4048 -25.7173,-1.2398 -38.5753,-0.918 -12.4397,0.3113 -24.8036,2.0849 -37.2292,2.754 -13.6181,0.7333 -27.3239,-0.015 -40.8902,1.3804 -12.5188,1.2875 -37.2024,6.4327 -37.2024,6.4327 z"
       id="path2881"
       sodipodi:nodetypes="cssssssssssssssssssssssssssssssssssssssssssc" />
  </g>
</svg>
